<mxfile host="app.diagrams.net" modified="2024-04-11T22:21:22.062Z" agent="Mozilla/5.0 (X11; CrOS x86_64 14541.0.0) AppleWebKit/537.36 (KHTML, like Gecko) Chrome/122.0.0.0 Safari/537.36" version="24.2.3" etag="lJz6-ZJ3MSEzWALrnA3u" type="github">
  <diagram name="PÃ¡gina-1" id="zXI7SyQ58Hk_xzIXPZt0">
    <mxGraphModel>
      <root>
        <mxCell id="0" />
        <mxCell id="1" parent="0" />
      </root>
    </mxGraphModel>
  </diagram>
</mxfile>
